<mxfile host="Electron" agent="Mozilla/5.0 (Windows NT 10.0; Win64; x64) AppleWebKit/537.36 (KHTML, like Gecko) draw.io/25.0.2 Chrome/128.0.6613.186 Electron/32.2.5 Safari/537.36" version="25.0.2">
  <diagram name="Page-1" id="kmPBpuBKjvY7cBnw3fKz">
    <mxGraphModel dx="2350" dy="2124" grid="1" gridSize="10" guides="1" tooltips="1" connect="1" arrows="1" fold="1" page="1" pageScale="1" pageWidth="850" pageHeight="1100" math="0" shadow="0">
      <root>
        <mxCell id="0" />
        <mxCell id="1" parent="0" />
        <mxCell id="bUMnmOPMMgmr5lYhNaWg-1" value="" style="rounded=0;whiteSpace=wrap;html=1;" parent="1" vertex="1">
          <mxGeometry x="40" y="50" width="760" height="650" as="geometry" />
        </mxCell>
        <mxCell id="bUMnmOPMMgmr5lYhNaWg-5" value="" style="rounded=1;whiteSpace=wrap;html=1;fillColor=#1ba1e2;strokeColor=#006EAF;fontColor=#ffffff;" parent="1" vertex="1">
          <mxGeometry x="50" y="60" width="740" height="60" as="geometry" />
        </mxCell>
        <mxCell id="bUMnmOPMMgmr5lYhNaWg-11" value="" style="rounded=1;whiteSpace=wrap;html=1;fillColor=#e51400;fontColor=#ffffff;strokeColor=#B20000;" parent="1" vertex="1">
          <mxGeometry x="50" y="130" width="740" height="390" as="geometry" />
        </mxCell>
        <mxCell id="bUMnmOPMMgmr5lYhNaWg-12" value="" style="rounded=1;whiteSpace=wrap;html=1;fillColor=#e3c800;fontColor=#000000;strokeColor=#B09500;" parent="1" vertex="1">
          <mxGeometry x="80" y="140" width="670" height="60" as="geometry" />
        </mxCell>
        <mxCell id="bUMnmOPMMgmr5lYhNaWg-48" value="" style="rounded=1;whiteSpace=wrap;html=1;fillColor=#60a917;strokeColor=#2D7600;fontColor=#ffffff;" parent="1" vertex="1">
          <mxGeometry x="60" y="70" width="350" height="40" as="geometry" />
        </mxCell>
        <mxCell id="bUMnmOPMMgmr5lYhNaWg-10" value="languages" style="rounded=1;whiteSpace=wrap;html=1;fillColor=#0050ef;fontColor=#ffffff;strokeColor=#001DBC;" parent="1" vertex="1">
          <mxGeometry x="310" y="70" width="90" height="40" as="geometry" />
        </mxCell>
        <mxCell id="bUMnmOPMMgmr5lYhNaWg-9" value="user" style="rounded=1;whiteSpace=wrap;html=1;fillColor=#0050ef;fontColor=#ffffff;strokeColor=#001DBC;" parent="1" vertex="1">
          <mxGeometry x="250" y="70" width="50" height="40" as="geometry" />
        </mxCell>
        <mxCell id="bUMnmOPMMgmr5lYhNaWg-8" value="about" style="rounded=1;whiteSpace=wrap;html=1;fillColor=#0050ef;fontColor=#ffffff;strokeColor=#001DBC;" parent="1" vertex="1">
          <mxGeometry x="190" y="70" width="50" height="40" as="geometry" />
        </mxCell>
        <mxCell id="bUMnmOPMMgmr5lYhNaWg-6" value="logo" style="rounded=1;whiteSpace=wrap;html=1;fillColor=#0050ef;fontColor=#ffffff;strokeColor=#001DBC;" parent="1" vertex="1">
          <mxGeometry x="75" y="70" width="70" height="40" as="geometry" />
        </mxCell>
        <mxCell id="bUMnmOPMMgmr5lYhNaWg-50" value="" style="rounded=1;whiteSpace=wrap;html=1;fillColor=#76608a;fontColor=#ffffff;strokeColor=#432D57;" parent="1" vertex="1">
          <mxGeometry x="420" y="70" width="360" height="40" as="geometry" />
        </mxCell>
        <mxCell id="bUMnmOPMMgmr5lYhNaWg-7" value="cart" style="rounded=1;whiteSpace=wrap;html=1;fillColor=#f0a30a;fontColor=#000000;strokeColor=#BD7000;" parent="1" vertex="1">
          <mxGeometry x="730" y="75" width="40" height="30" as="geometry" />
        </mxCell>
        <mxCell id="bUMnmOPMMgmr5lYhNaWg-59" value="Header" style="rounded=1;whiteSpace=wrap;html=1;" parent="1" vertex="1">
          <mxGeometry x="270" y="150" width="290" height="40" as="geometry" />
        </mxCell>
        <mxCell id="bUMnmOPMMgmr5lYhNaWg-64" value="" style="rounded=1;whiteSpace=wrap;html=1;fillColor=#1ba1e2;fontColor=#ffffff;strokeColor=#006EAF;" parent="1" vertex="1">
          <mxGeometry x="70" y="210" width="690" height="290" as="geometry" />
        </mxCell>
        <mxCell id="bUMnmOPMMgmr5lYhNaWg-21" value="" style="rounded=1;whiteSpace=wrap;html=1;fillColor=#647687;fontColor=#ffffff;strokeColor=#314354;" parent="1" vertex="1">
          <mxGeometry x="630" y="220" width="110" height="120" as="geometry" />
        </mxCell>
        <mxCell id="bUMnmOPMMgmr5lYhNaWg-20" value="" style="rounded=1;whiteSpace=wrap;html=1;fillColor=#647687;fontColor=#ffffff;strokeColor=#314354;" parent="1" vertex="1">
          <mxGeometry x="500" y="220" width="110" height="120" as="geometry" />
        </mxCell>
        <mxCell id="bUMnmOPMMgmr5lYhNaWg-13" value="" style="rounded=1;whiteSpace=wrap;html=1;fillColor=#647687;fontColor=#ffffff;strokeColor=#314354;" parent="1" vertex="1">
          <mxGeometry x="90" y="220" width="110" height="120" as="geometry" />
        </mxCell>
        <mxCell id="bUMnmOPMMgmr5lYhNaWg-18" value="" style="rounded=1;whiteSpace=wrap;html=1;fillColor=#647687;fontColor=#ffffff;strokeColor=#314354;" parent="1" vertex="1">
          <mxGeometry x="220" y="220" width="110" height="120" as="geometry" />
        </mxCell>
        <mxCell id="bUMnmOPMMgmr5lYhNaWg-19" value="" style="rounded=1;whiteSpace=wrap;html=1;fillColor=#647687;fontColor=#ffffff;strokeColor=#314354;" parent="1" vertex="1">
          <mxGeometry x="360" y="220" width="110" height="120" as="geometry" />
        </mxCell>
        <mxCell id="bUMnmOPMMgmr5lYhNaWg-23" value="" style="rounded=1;whiteSpace=wrap;html=1;fillColor=#647687;fontColor=#ffffff;strokeColor=#314354;" parent="1" vertex="1">
          <mxGeometry x="90" y="370" width="110" height="120" as="geometry" />
        </mxCell>
        <mxCell id="bUMnmOPMMgmr5lYhNaWg-24" value="" style="rounded=1;whiteSpace=wrap;html=1;fillColor=#647687;fontColor=#ffffff;strokeColor=#314354;" parent="1" vertex="1">
          <mxGeometry x="220" y="370" width="110" height="120" as="geometry" />
        </mxCell>
        <mxCell id="bUMnmOPMMgmr5lYhNaWg-25" value="" style="rounded=1;whiteSpace=wrap;html=1;fillColor=#647687;fontColor=#ffffff;strokeColor=#314354;" parent="1" vertex="1">
          <mxGeometry x="360" y="370" width="110" height="120" as="geometry" />
        </mxCell>
        <mxCell id="bUMnmOPMMgmr5lYhNaWg-26" value="" style="rounded=1;whiteSpace=wrap;html=1;fillColor=#647687;fontColor=#ffffff;strokeColor=#314354;" parent="1" vertex="1">
          <mxGeometry x="500" y="370" width="110" height="120" as="geometry" />
        </mxCell>
        <mxCell id="bUMnmOPMMgmr5lYhNaWg-27" value="" style="rounded=1;whiteSpace=wrap;html=1;fillColor=#647687;fontColor=#ffffff;strokeColor=#314354;" parent="1" vertex="1">
          <mxGeometry x="630" y="370" width="110" height="120" as="geometry" />
        </mxCell>
        <mxCell id="bUMnmOPMMgmr5lYhNaWg-67" value="" style="rounded=1;whiteSpace=wrap;html=1;fillColor=#f5f5f5;gradientColor=#b3b3b3;strokeColor=#666666;" parent="1" vertex="1">
          <mxGeometry x="50" y="630" width="740" height="60" as="geometry" />
        </mxCell>
        <mxCell id="bUMnmOPMMgmr5lYhNaWg-77" value="" style="rounded=1;whiteSpace=wrap;html=1;fillColor=#e6d0de;gradientColor=#d5739d;strokeColor=#996185;" parent="1" vertex="1">
          <mxGeometry x="60" y="640" width="420" height="40" as="geometry" />
        </mxCell>
        <mxCell id="bUMnmOPMMgmr5lYhNaWg-70" value="img url" style="rounded=1;whiteSpace=wrap;html=1;" parent="1" vertex="1">
          <mxGeometry x="175" y="640" width="80" height="40" as="geometry" />
        </mxCell>
        <mxCell id="bUMnmOPMMgmr5lYhNaWg-71" value="name product" style="rounded=1;whiteSpace=wrap;html=1;" parent="1" vertex="1">
          <mxGeometry x="65" y="640" width="80" height="40" as="geometry" />
        </mxCell>
        <mxCell id="bUMnmOPMMgmr5lYhNaWg-72" value="price" style="rounded=1;whiteSpace=wrap;html=1;" parent="1" vertex="1">
          <mxGeometry x="280" y="640" width="80" height="40" as="geometry" />
        </mxCell>
        <mxCell id="bUMnmOPMMgmr5lYhNaWg-73" value="stock?" style="rounded=1;whiteSpace=wrap;html=1;" parent="1" vertex="1">
          <mxGeometry x="385" y="640" width="80" height="40" as="geometry" />
        </mxCell>
        <mxCell id="bUMnmOPMMgmr5lYhNaWg-78" value="" style="rounded=1;whiteSpace=wrap;html=1;fillColor=#f8cecc;gradientColor=#ea6b66;strokeColor=#b85450;" parent="1" vertex="1">
          <mxGeometry x="490" y="640" width="290" height="40" as="geometry" />
        </mxCell>
        <mxCell id="bUMnmOPMMgmr5lYhNaWg-74" value="submit" style="rounded=1;whiteSpace=wrap;html=1;" parent="1" vertex="1">
          <mxGeometry x="700" y="645" width="70" height="30" as="geometry" />
        </mxCell>
        <mxCell id="bUMnmOPMMgmr5lYhNaWg-87" value="&lt;h1&gt;&lt;font face=&quot;Verdana&quot; style=&quot;font-size: 35px;&quot;&gt;mvc&lt;/font&gt;&lt;/h1&gt;" style="rounded=1;whiteSpace=wrap;html=1;" parent="1" vertex="1">
          <mxGeometry x="320" y="720" width="240" height="70" as="geometry" />
        </mxCell>
        <mxCell id="bUMnmOPMMgmr5lYhNaWg-88" value="" style="edgeStyle=orthogonalEdgeStyle;rounded=0;orthogonalLoop=1;jettySize=auto;html=1;strokeWidth=4;" parent="1" source="bUMnmOPMMgmr5lYhNaWg-89" target="bUMnmOPMMgmr5lYhNaWg-91" edge="1">
          <mxGeometry relative="1" as="geometry" />
        </mxCell>
        <mxCell id="bUMnmOPMMgmr5lYhNaWg-89" value="&lt;font style=&quot;font-size: 34px;&quot;&gt;data&lt;/font&gt;" style="shape=cylinder3;whiteSpace=wrap;html=1;boundedLbl=1;backgroundOutline=1;size=15;" parent="1" vertex="1">
          <mxGeometry x="10" y="830" width="210" height="230" as="geometry" />
        </mxCell>
        <mxCell id="bUMnmOPMMgmr5lYhNaWg-90" value="" style="edgeStyle=orthogonalEdgeStyle;rounded=0;orthogonalLoop=1;jettySize=auto;html=1;strokeWidth=4;" parent="1" source="bUMnmOPMMgmr5lYhNaWg-91" target="bUMnmOPMMgmr5lYhNaWg-92" edge="1">
          <mxGeometry relative="1" as="geometry" />
        </mxCell>
        <mxCell id="bUMnmOPMMgmr5lYhNaWg-91" value="&lt;font style=&quot;font-size: 35px;&quot;&gt;view&lt;/font&gt;" style="whiteSpace=wrap;html=1;" parent="1" vertex="1">
          <mxGeometry x="320" y="860" width="250" height="170" as="geometry" />
        </mxCell>
        <mxCell id="bUMnmOPMMgmr5lYhNaWg-92" value="&lt;font style=&quot;font-size: 35px;&quot;&gt;control&lt;/font&gt;" style="whiteSpace=wrap;html=1;" parent="1" vertex="1">
          <mxGeometry x="660" y="860" width="250" height="170" as="geometry" />
        </mxCell>
        <mxCell id="bUMnmOPMMgmr5lYhNaWg-94" value="&lt;font style=&quot;font-size: 35px;&quot;&gt;event&lt;/font&gt;&lt;div&gt;&lt;font style=&quot;font-size: 35px;&quot;&gt;onClick&lt;/font&gt;&lt;/div&gt;" style="whiteSpace=wrap;html=1;" parent="1" vertex="1">
          <mxGeometry x="940" y="1045" width="140" height="110" as="geometry" />
        </mxCell>
        <mxCell id="bUMnmOPMMgmr5lYhNaWg-99" value="method #1 (function):&lt;div&gt;&lt;span style=&quot;font-size: 22px;&quot;&gt;handleAddToCart&lt;/span&gt;&lt;/div&gt;" style="rounded=1;whiteSpace=wrap;html=1;" parent="1" vertex="1">
          <mxGeometry x="660" y="1060" width="250" height="80" as="geometry" />
        </mxCell>
        <mxCell id="bUMnmOPMMgmr5lYhNaWg-101" value="method #2 (function):&lt;div&gt;&lt;span style=&quot;font-size: 22px;&quot;&gt;handleAddProduct&lt;/span&gt;&lt;/div&gt;" style="rounded=1;whiteSpace=wrap;html=1;" parent="1" vertex="1">
          <mxGeometry x="660" y="1185" width="250" height="80" as="geometry" />
        </mxCell>
        <mxCell id="bUMnmOPMMgmr5lYhNaWg-102" value="&lt;font style=&quot;font-size: 35px;&quot;&gt;event&lt;/font&gt;&lt;div&gt;&lt;font style=&quot;font-size: 35px;&quot;&gt;onClick&lt;/font&gt;&lt;/div&gt;" style="whiteSpace=wrap;html=1;" parent="1" vertex="1">
          <mxGeometry x="940" y="1170" width="140" height="110" as="geometry" />
        </mxCell>
        <mxCell id="bUMnmOPMMgmr5lYhNaWg-105" value="" style="endArrow=classic;html=1;rounded=0;" parent="1" source="bUMnmOPMMgmr5lYhNaWg-92" target="bUMnmOPMMgmr5lYhNaWg-99" edge="1">
          <mxGeometry width="50" height="50" relative="1" as="geometry">
            <mxPoint x="785" y="1030" as="sourcePoint" />
            <mxPoint x="820" y="960" as="targetPoint" />
            <Array as="points">
              <mxPoint x="785" y="1050" />
            </Array>
          </mxGeometry>
        </mxCell>
        <mxCell id="bUMnmOPMMgmr5lYhNaWg-106" value="" style="endArrow=classic;html=1;rounded=0;" parent="1" source="bUMnmOPMMgmr5lYhNaWg-92" target="bUMnmOPMMgmr5lYhNaWg-101" edge="1">
          <mxGeometry width="50" height="50" relative="1" as="geometry">
            <mxPoint x="760" y="1050" as="sourcePoint" />
            <mxPoint x="600" y="960" as="targetPoint" />
            <Array as="points">
              <mxPoint x="620" y="1050" />
              <mxPoint x="620" y="1220" />
            </Array>
          </mxGeometry>
        </mxCell>
        <mxCell id="bUMnmOPMMgmr5lYhNaWg-107" value="method #1 (function):&lt;div&gt;&lt;span style=&quot;font-size: 22px;&quot;&gt;AddToCart&lt;/span&gt;&lt;/div&gt;" style="rounded=1;whiteSpace=wrap;html=1;" parent="1" vertex="1">
          <mxGeometry y="1100" width="250" height="80" as="geometry" />
        </mxCell>
        <mxCell id="bUMnmOPMMgmr5lYhNaWg-110" value="" style="endArrow=classic;html=1;rounded=0;" parent="1" source="bUMnmOPMMgmr5lYhNaWg-89" target="bUMnmOPMMgmr5lYhNaWg-112" edge="1">
          <mxGeometry width="50" height="50" relative="1" as="geometry">
            <mxPoint x="550" y="1010" as="sourcePoint" />
            <mxPoint x="-60" y="1290" as="targetPoint" />
            <Array as="points">
              <mxPoint x="-60" y="1090" />
              <mxPoint x="-60" y="1260" />
            </Array>
          </mxGeometry>
        </mxCell>
        <mxCell id="bUMnmOPMMgmr5lYhNaWg-112" value="method #2 (function):&lt;div&gt;&lt;span style=&quot;font-size: 22px;&quot;&gt;AddProduct&lt;/span&gt;&lt;/div&gt;" style="rounded=1;whiteSpace=wrap;html=1;" parent="1" vertex="1">
          <mxGeometry y="1220" width="250" height="80" as="geometry" />
        </mxCell>
        <mxCell id="bUMnmOPMMgmr5lYhNaWg-115" value="" style="endArrow=classic;html=1;rounded=0;exitX=0.533;exitY=0.996;exitDx=0;exitDy=0;exitPerimeter=0;" parent="1" source="bUMnmOPMMgmr5lYhNaWg-89" target="bUMnmOPMMgmr5lYhNaWg-107" edge="1">
          <mxGeometry width="50" height="50" relative="1" as="geometry">
            <mxPoint x="110" y="1110" as="sourcePoint" />
            <mxPoint x="160" y="1060" as="targetPoint" />
          </mxGeometry>
        </mxCell>
        <mxCell id="bUMnmOPMMgmr5lYhNaWg-116" value="" style="endArrow=classic;startArrow=classic;html=1;rounded=0;" parent="1" source="bUMnmOPMMgmr5lYhNaWg-99" target="bUMnmOPMMgmr5lYhNaWg-94" edge="1">
          <mxGeometry width="50" height="50" relative="1" as="geometry">
            <mxPoint x="910" y="1130" as="sourcePoint" />
            <mxPoint x="960" y="1080" as="targetPoint" />
          </mxGeometry>
        </mxCell>
        <mxCell id="bUMnmOPMMgmr5lYhNaWg-117" value="" style="endArrow=classic;startArrow=classic;html=1;rounded=0;" parent="1" source="bUMnmOPMMgmr5lYhNaWg-101" target="bUMnmOPMMgmr5lYhNaWg-102" edge="1">
          <mxGeometry width="50" height="50" relative="1" as="geometry">
            <mxPoint x="900" y="1360" as="sourcePoint" />
            <mxPoint x="950" y="1310" as="targetPoint" />
          </mxGeometry>
        </mxCell>
        <mxCell id="2FMyoqeIMdSR1zZM-ZV--6" value="" style="rounded=0;whiteSpace=wrap;html=1;" vertex="1" parent="1">
          <mxGeometry x="840" y="390" width="400" height="400" as="geometry" />
        </mxCell>
        <mxCell id="bUMnmOPMMgmr5lYhNaWg-69" value="" style="edgeStyle=orthogonalEdgeStyle;rounded=0;orthogonalLoop=1;jettySize=auto;html=1;" parent="1" source="bUMnmOPMMgmr5lYhNaWg-67" target="bUMnmOPMMgmr5lYhNaWg-68" edge="1">
          <mxGeometry relative="1" as="geometry">
            <Array as="points">
              <mxPoint x="860" y="660" />
              <mxPoint x="860" y="430" />
            </Array>
          </mxGeometry>
        </mxCell>
        <mxCell id="bUMnmOPMMgmr5lYhNaWg-76" value="" style="edgeStyle=orthogonalEdgeStyle;rounded=0;orthogonalLoop=1;jettySize=auto;html=1;" parent="1" source="bUMnmOPMMgmr5lYhNaWg-68" target="bUMnmOPMMgmr5lYhNaWg-75" edge="1">
          <mxGeometry relative="1" as="geometry" />
        </mxCell>
        <mxCell id="bUMnmOPMMgmr5lYhNaWg-80" value="" style="edgeStyle=orthogonalEdgeStyle;rounded=0;orthogonalLoop=1;jettySize=auto;html=1;" parent="1" source="bUMnmOPMMgmr5lYhNaWg-68" target="bUMnmOPMMgmr5lYhNaWg-79" edge="1">
          <mxGeometry relative="1" as="geometry" />
        </mxCell>
        <mxCell id="bUMnmOPMMgmr5lYhNaWg-82" value="" style="edgeStyle=orthogonalEdgeStyle;rounded=0;orthogonalLoop=1;jettySize=auto;html=1;" parent="1" source="bUMnmOPMMgmr5lYhNaWg-79" target="bUMnmOPMMgmr5lYhNaWg-81" edge="1">
          <mxGeometry relative="1" as="geometry" />
        </mxCell>
        <mxCell id="bUMnmOPMMgmr5lYhNaWg-68" value="adminPanel" style="whiteSpace=wrap;html=1;fillColor=#f5f5f5;strokeColor=#666666;rounded=1;gradientColor=#b3b3b3;" parent="1" vertex="1">
          <mxGeometry x="1010" y="400" width="120" height="60" as="geometry" />
        </mxCell>
        <mxCell id="bUMnmOPMMgmr5lYhNaWg-75" value="adminPanel__left" style="whiteSpace=wrap;html=1;fillColor=#e6d0de;strokeColor=#996185;rounded=1;gradientColor=#d5739d;" parent="1" vertex="1">
          <mxGeometry x="900" y="500" width="160" height="60" as="geometry" />
        </mxCell>
        <mxCell id="bUMnmOPMMgmr5lYhNaWg-79" value="adminPanel__right" style="whiteSpace=wrap;html=1;fillColor=#f8cecc;strokeColor=#b85450;rounded=1;gradientColor=#ea6b66;" parent="1" vertex="1">
          <mxGeometry x="1100" y="500" width="120" height="60" as="geometry" />
        </mxCell>
        <mxCell id="bUMnmOPMMgmr5lYhNaWg-81" value="adminPanel__right--submit" style="whiteSpace=wrap;html=1;fillColor=#f8cecc;strokeColor=#b85450;rounded=1;gradientColor=#ea6b66;" parent="1" vertex="1">
          <mxGeometry x="1100" y="590" width="120" height="60" as="geometry" />
        </mxCell>
        <mxCell id="bUMnmOPMMgmr5lYhNaWg-83" value="adminPanel__left--nameProduct" style="rounded=1;whiteSpace=wrap;html=1;" parent="1" vertex="1">
          <mxGeometry x="920" y="580" width="120" height="40" as="geometry" />
        </mxCell>
        <mxCell id="bUMnmOPMMgmr5lYhNaWg-84" value="adminPanel__left--img" style="rounded=1;whiteSpace=wrap;html=1;" parent="1" vertex="1">
          <mxGeometry x="920" y="630" width="120" height="40" as="geometry" />
        </mxCell>
        <mxCell id="bUMnmOPMMgmr5lYhNaWg-85" value="adminPanel__left--stock" style="rounded=1;whiteSpace=wrap;html=1;" parent="1" vertex="1">
          <mxGeometry x="920" y="730" width="120" height="40" as="geometry" />
        </mxCell>
        <mxCell id="bUMnmOPMMgmr5lYhNaWg-86" value="adminPanel__left--price" style="rounded=1;whiteSpace=wrap;html=1;" parent="1" vertex="1">
          <mxGeometry x="920" y="680" width="120" height="40" as="geometry" />
        </mxCell>
        <mxCell id="2FMyoqeIMdSR1zZM-ZV--8" value="" style="rounded=0;whiteSpace=wrap;html=1;" vertex="1" parent="1">
          <mxGeometry x="830" y="90" width="440" height="280" as="geometry" />
        </mxCell>
        <mxCell id="bUMnmOPMMgmr5lYhNaWg-58" value="" style="edgeStyle=orthogonalEdgeStyle;rounded=0;orthogonalLoop=1;jettySize=auto;html=1;" parent="1" source="bUMnmOPMMgmr5lYhNaWg-55" target="bUMnmOPMMgmr5lYhNaWg-57" edge="1">
          <mxGeometry relative="1" as="geometry" />
        </mxCell>
        <mxCell id="bUMnmOPMMgmr5lYhNaWg-63" value="" style="edgeStyle=orthogonalEdgeStyle;rounded=0;orthogonalLoop=1;jettySize=auto;html=1;" parent="1" source="bUMnmOPMMgmr5lYhNaWg-55" target="bUMnmOPMMgmr5lYhNaWg-62" edge="1">
          <mxGeometry relative="1" as="geometry" />
        </mxCell>
        <mxCell id="bUMnmOPMMgmr5lYhNaWg-55" value="main" style="rounded=1;whiteSpace=wrap;html=1;fillColor=#e51400;fontColor=#ffffff;strokeColor=#B20000;" parent="1" vertex="1">
          <mxGeometry x="930" y="120" width="180" height="40" as="geometry" />
        </mxCell>
        <mxCell id="bUMnmOPMMgmr5lYhNaWg-61" value="" style="edgeStyle=orthogonalEdgeStyle;rounded=0;orthogonalLoop=1;jettySize=auto;html=1;" parent="1" source="bUMnmOPMMgmr5lYhNaWg-57" target="bUMnmOPMMgmr5lYhNaWg-60" edge="1">
          <mxGeometry relative="1" as="geometry" />
        </mxCell>
        <mxCell id="bUMnmOPMMgmr5lYhNaWg-57" value="main__ContentHeader" style="whiteSpace=wrap;html=1;fillColor=#e3c800;strokeColor=#B09500;fontColor=#000000;rounded=1;" parent="1" vertex="1">
          <mxGeometry x="890" y="200" width="130" height="30" as="geometry" />
        </mxCell>
        <mxCell id="bUMnmOPMMgmr5lYhNaWg-60" value="main__contentHeader--header" style="whiteSpace=wrap;html=1;rounded=1;" parent="1" vertex="1">
          <mxGeometry x="880" y="265" width="150" height="30" as="geometry" />
        </mxCell>
        <mxCell id="bUMnmOPMMgmr5lYhNaWg-66" value="" style="edgeStyle=orthogonalEdgeStyle;rounded=0;orthogonalLoop=1;jettySize=auto;html=1;" parent="1" source="bUMnmOPMMgmr5lYhNaWg-62" target="bUMnmOPMMgmr5lYhNaWg-65" edge="1">
          <mxGeometry relative="1" as="geometry" />
        </mxCell>
        <mxCell id="bUMnmOPMMgmr5lYhNaWg-62" value="main__productsCont" style="whiteSpace=wrap;html=1;fillColor=#1ba1e2;strokeColor=#006EAF;fontColor=#ffffff;rounded=1;" parent="1" vertex="1">
          <mxGeometry x="1060" y="200" width="120" height="50" as="geometry" />
        </mxCell>
        <mxCell id="bUMnmOPMMgmr5lYhNaWg-65" value="all products --&amp;gt;&amp;nbsp;&lt;div&gt;main__productsCont--product&lt;/div&gt;" style="whiteSpace=wrap;html=1;fillColor=#647687;strokeColor=#314354;fontColor=#ffffff;rounded=1;" parent="1" vertex="1">
          <mxGeometry x="1060" y="280" width="190" height="60" as="geometry" />
        </mxCell>
        <mxCell id="bUMnmOPMMgmr5lYhNaWg-56" value="" style="edgeStyle=orthogonalEdgeStyle;rounded=0;orthogonalLoop=1;jettySize=auto;html=1;" parent="1" source="bUMnmOPMMgmr5lYhNaWg-11" target="bUMnmOPMMgmr5lYhNaWg-55" edge="1">
          <mxGeometry relative="1" as="geometry" />
        </mxCell>
        <mxCell id="2FMyoqeIMdSR1zZM-ZV--9" value="" style="rounded=0;whiteSpace=wrap;html=1;" vertex="1" parent="1">
          <mxGeometry x="40" y="-280" width="800" height="310" as="geometry" />
        </mxCell>
        <mxCell id="bUMnmOPMMgmr5lYhNaWg-32" value="" style="edgeStyle=orthogonalEdgeStyle;rounded=0;orthogonalLoop=1;jettySize=auto;html=1;" parent="1" source="bUMnmOPMMgmr5lYhNaWg-29" target="bUMnmOPMMgmr5lYhNaWg-31" edge="1">
          <mxGeometry relative="1" as="geometry" />
        </mxCell>
        <mxCell id="bUMnmOPMMgmr5lYhNaWg-29" value="navBar" style="rounded=0;whiteSpace=wrap;html=1;fillColor=#1ba1e2;strokeColor=#006EAF;fontColor=#ffffff;" parent="1" vertex="1">
          <mxGeometry x="445" y="-77.98" width="120" height="60" as="geometry" />
        </mxCell>
        <mxCell id="bUMnmOPMMgmr5lYhNaWg-31" value="navBar__left" style="whiteSpace=wrap;html=1;rounded=0;fillColor=#60a917;fontColor=#ffffff;strokeColor=#2D7600;" parent="1" vertex="1">
          <mxGeometry x="205" y="-77.98" width="120" height="60" as="geometry" />
        </mxCell>
        <mxCell id="bUMnmOPMMgmr5lYhNaWg-34" value="navBar__left--about" style="whiteSpace=wrap;html=1;rounded=0;fillColor=#0050ef;fontColor=#ffffff;strokeColor=#001DBC;" parent="1" vertex="1">
          <mxGeometry x="495" y="-237.98" width="120" height="60" as="geometry" />
        </mxCell>
        <mxCell id="bUMnmOPMMgmr5lYhNaWg-41" value="navBar__left--user" style="whiteSpace=wrap;html=1;rounded=0;fillColor=#0050ef;fontColor=#ffffff;strokeColor=#001DBC;" parent="1" vertex="1">
          <mxGeometry x="205" y="-237.98" width="120" height="60" as="geometry" />
        </mxCell>
        <mxCell id="bUMnmOPMMgmr5lYhNaWg-42" value="navBar__left--languages" style="whiteSpace=wrap;html=1;rounded=0;fillColor=#0050ef;fontColor=#ffffff;strokeColor=#001DBC;" parent="1" vertex="1">
          <mxGeometry x="355" y="-237.98" width="120" height="60" as="geometry" />
        </mxCell>
        <mxCell id="bUMnmOPMMgmr5lYhNaWg-54" value="" style="edgeStyle=orthogonalEdgeStyle;rounded=0;orthogonalLoop=1;jettySize=auto;html=1;" parent="1" source="bUMnmOPMMgmr5lYhNaWg-51" target="bUMnmOPMMgmr5lYhNaWg-53" edge="1">
          <mxGeometry relative="1" as="geometry" />
        </mxCell>
        <mxCell id="bUMnmOPMMgmr5lYhNaWg-51" value="navBar__right" style="rounded=0;whiteSpace=wrap;html=1;fillColor=#76608a;fontColor=#ffffff;strokeColor=#432D57;" parent="1" vertex="1">
          <mxGeometry x="705" y="-77.98" width="120" height="60" as="geometry" />
        </mxCell>
        <mxCell id="bUMnmOPMMgmr5lYhNaWg-52" value="" style="endArrow=classic;html=1;rounded=0;entryX=0;entryY=0.5;entryDx=0;entryDy=0;exitX=1;exitY=0.5;exitDx=0;exitDy=0;" parent="1" source="bUMnmOPMMgmr5lYhNaWg-29" target="bUMnmOPMMgmr5lYhNaWg-51" edge="1">
          <mxGeometry width="50" height="50" relative="1" as="geometry">
            <mxPoint x="645" y="42.019999999999996" as="sourcePoint" />
            <mxPoint x="695" y="-7.98" as="targetPoint" />
            <Array as="points" />
          </mxGeometry>
        </mxCell>
        <mxCell id="bUMnmOPMMgmr5lYhNaWg-53" value="navBar__right--cart" style="whiteSpace=wrap;html=1;rounded=0;fillColor=#f0a30a;fontColor=#000000;strokeColor=#BD7000;" parent="1" vertex="1">
          <mxGeometry x="705" y="-237.98" width="120" height="60" as="geometry" />
        </mxCell>
        <mxCell id="2FMyoqeIMdSR1zZM-ZV--1" value="" style="endArrow=classic;html=1;rounded=0;exitX=0.486;exitY=0.043;exitDx=0;exitDy=0;exitPerimeter=0;entryX=0.5;entryY=1;entryDx=0;entryDy=0;" edge="1" parent="1" source="bUMnmOPMMgmr5lYhNaWg-5" target="bUMnmOPMMgmr5lYhNaWg-29">
          <mxGeometry width="50" height="50" relative="1" as="geometry">
            <mxPoint x="503.9000000000001" y="50.000000000000014" as="sourcePoint" />
            <mxPoint x="415" y="-7.98" as="targetPoint" />
            <Array as="points">
              <mxPoint x="410" y="22" />
              <mxPoint x="505" y="22.02" />
            </Array>
          </mxGeometry>
        </mxCell>
        <mxCell id="2FMyoqeIMdSR1zZM-ZV--2" value="" style="endArrow=classic;html=1;rounded=0;entryX=0.5;entryY=1;entryDx=0;entryDy=0;" edge="1" parent="1" source="bUMnmOPMMgmr5lYhNaWg-31" target="bUMnmOPMMgmr5lYhNaWg-34">
          <mxGeometry width="50" height="50" relative="1" as="geometry">
            <mxPoint x="525" y="-167.98" as="sourcePoint" />
            <mxPoint x="575" y="-217.98" as="targetPoint" />
            <Array as="points">
              <mxPoint x="265" y="-137.98" />
              <mxPoint x="555" y="-137.98" />
            </Array>
          </mxGeometry>
        </mxCell>
        <mxCell id="2FMyoqeIMdSR1zZM-ZV--3" value="" style="endArrow=classic;html=1;rounded=0;exitX=0.5;exitY=0;exitDx=0;exitDy=0;" edge="1" parent="1" source="bUMnmOPMMgmr5lYhNaWg-31">
          <mxGeometry width="50" height="50" relative="1" as="geometry">
            <mxPoint x="525" y="-167.98" as="sourcePoint" />
            <mxPoint x="415" y="-177.98" as="targetPoint" />
            <Array as="points">
              <mxPoint x="265" y="-137.98" />
              <mxPoint x="415" y="-137.98" />
            </Array>
          </mxGeometry>
        </mxCell>
        <mxCell id="2FMyoqeIMdSR1zZM-ZV--4" value="" style="endArrow=classic;html=1;rounded=0;entryX=0.5;entryY=1;entryDx=0;entryDy=0;" edge="1" parent="1" target="bUMnmOPMMgmr5lYhNaWg-41">
          <mxGeometry width="50" height="50" relative="1" as="geometry">
            <mxPoint x="265" y="-137.98" as="sourcePoint" />
            <mxPoint x="575" y="-217.98" as="targetPoint" />
          </mxGeometry>
        </mxCell>
        <mxCell id="2FMyoqeIMdSR1zZM-ZV--5" value="" style="endArrow=classic;html=1;rounded=0;entryX=0.5;entryY=1;entryDx=0;entryDy=0;" edge="1" parent="1" target="bUMnmOPMMgmr5lYhNaWg-37">
          <mxGeometry width="50" height="50" relative="1" as="geometry">
            <mxPoint x="265" y="-137.98" as="sourcePoint" />
            <mxPoint x="575" y="-217.98" as="targetPoint" />
            <Array as="points">
              <mxPoint x="115" y="-137.98" />
            </Array>
          </mxGeometry>
        </mxCell>
        <mxCell id="bUMnmOPMMgmr5lYhNaWg-37" value="navBar__left--logo" style="rounded=0;whiteSpace=wrap;html=1;fillColor=#0050ef;fontColor=#ffffff;strokeColor=#001DBC;" parent="1" vertex="1">
          <mxGeometry x="55" y="-237.98" width="120" height="60" as="geometry" />
        </mxCell>
        <mxCell id="2FMyoqeIMdSR1zZM-ZV--13" value="" style="rounded=0;whiteSpace=wrap;html=1;" vertex="1" parent="1">
          <mxGeometry x="890" y="-410" width="340" height="470" as="geometry" />
        </mxCell>
        <mxCell id="bUMnmOPMMgmr5lYhNaWg-118" value="" style="rounded=1;whiteSpace=wrap;html=1;" parent="1" vertex="1">
          <mxGeometry x="920" y="-320" width="280" height="360" as="geometry" />
        </mxCell>
        <mxCell id="bUMnmOPMMgmr5lYhNaWg-119" value="Example of product" style="rounded=1;whiteSpace=wrap;html=1;" parent="1" vertex="1">
          <mxGeometry x="1000" y="-395" width="120" height="60" as="geometry" />
        </mxCell>
        <mxCell id="2FMyoqeIMdSR1zZM-ZV--10" value="img" style="rounded=1;whiteSpace=wrap;html=1;" vertex="1" parent="1">
          <mxGeometry x="940" y="-300" width="240" height="180" as="geometry" />
        </mxCell>
        <mxCell id="2FMyoqeIMdSR1zZM-ZV--11" value="name product" style="rounded=1;whiteSpace=wrap;html=1;" vertex="1" parent="1">
          <mxGeometry x="940" y="-110" width="240" height="40" as="geometry" />
        </mxCell>
        <mxCell id="2FMyoqeIMdSR1zZM-ZV--12" value="price | stock" style="rounded=1;whiteSpace=wrap;html=1;" vertex="1" parent="1">
          <mxGeometry x="940" y="-50" width="240" height="60" as="geometry" />
        </mxCell>
        <mxCell id="2FMyoqeIMdSR1zZM-ZV--14" value="" style="endArrow=classic;startArrow=classic;html=1;rounded=0;entryX=0.474;entryY=0.993;entryDx=0;entryDy=0;entryPerimeter=0;" edge="1" parent="1" source="2FMyoqeIMdSR1zZM-ZV--8" target="2FMyoqeIMdSR1zZM-ZV--13">
          <mxGeometry width="50" height="50" relative="1" as="geometry">
            <mxPoint x="1040" y="110" as="sourcePoint" />
            <mxPoint x="1090" y="60" as="targetPoint" />
          </mxGeometry>
        </mxCell>
      </root>
    </mxGraphModel>
  </diagram>
</mxfile>
